# xmcd
#
# Track frame offsets:
#	150
#	8981
#	30896
#	50491
#	70972
#	88853
#	111828
#	136513
#	153943
#	171113
#	184106
#	202435
#	214747
#	219547
#	241081
#	261849
#	294891
#
# Disc length: 4203 seconds
# Revision: 0
# Processed by: cddbd v1.5.2PL0 Copyright (c) Steve Scherf et al.
# Submitted via: dBpowerAMP V12.0
#
DISCID=ef106911
DTITLE=Various Artist - The Chronic (Digitally Remastered)
DYEAR=1992
DGENRE=Hip Hop
TTITLE0=Dr. Dre (additional vocals: Snoop Doggy Dogg) - The Chronic (Intro)
TTITLE1=Dr. Dre (additional vocals: Snoop Doggy Dogg/RBX/Jewell - Fuck Wit' Dre Day (And Everybody's Celebratin')
TTITLE2=Dr. Dre (additional vocals: Ruben/Jewell) - Let Me Ride
TTITLE3=Dr. Dre (additional vocals: RBX/Snoop Doggy Dogg/Dat Nigga Daz - The Day The Niggaz Took Over
TTITLE4=Dr. Dre (additional vocals: Snoop Doggy Dogg) - Nuthin' But A "G" Thang
TTITLE5=Dr. Dre (additional vocals: Dat Nigga Daz/Snoop Doggy Dogg/Nate Dogg/Warren G) - Deeez Nuuuts
TTITLE6=Dr. Dre (additional vocals: Snoop Doggy Dogg/Dat Nigga Daz - Lil' Ghetto Boy
TTITLE7=Dr. Dre - A Nigga Witta Gun
TTITLE8=Dr. Dre (additional vocals: RBX/BJ/Snoop Doggy Dogg) - Rat-Tat-Tat-Tat
TTITLE9=Dr. Dre (additional vocals: Big Tittie Nickie/D.O.C./Samara/Snoop Doggy Dogg - The $20 Sack Pyramid
TTITLE10=Dr. Dre (additional vocals: Rage/Kurupt/RBX) - Lyrical Gangbang
TTITLE11=Dr. Dre (additional vocals: RBX/Dat Nigga Daz/Rage) - High Powered
TTITLE12=Dr. Dre (additional vocals: Rage/Jewell) - The Doctor's Office
TTITLE13=Dr. Dre (additional vocals: Bushwick Bill/Kurupt/RBX/Rage/Snoop Doggy Dogg) - Stranded On Death Row
TTITLE14=Dr. Dre (additional vocals: RBX/Dat Nigga Daz/Rage/Emmage/Ruben/Jewell) - The Roach (The Chronic Outro)
TTITLE15=Dr. Dre (additional vocals: Snoop Doggy Dogg/Dat Nigga Daz/Kurupt) - Bitches Ain't Shit
TTITLE16=DATA
EXTD=
EXTT0=
EXTT1=
EXTT2=
EXTT3=
EXTT4=
EXTT5=
EXTT6=
EXTT7=
EXTT8=
EXTT9=
EXTT10=
EXTT11=
EXTT12=
EXTT13=
EXTT14=
EXTT15=
EXTT16=
PLAYORDER=
